<?xml version="1.0"?>
<svg xmlns="http://www.w3.org/2000/svg" xmlns:xlink="http://www.w3.org/1999/xlink" version="1.1" id="Capa_1" x="0px" y="0px" viewBox="0 0 60 60" style="enable-background:new 0 0 60 60;" xml:space="preserve" width="512px" height="512px" class=""><g><g>
	<path d="M26.667,26.032l3.862,3.862l3.885-3.885l-3.862-3.862L26.667,26.032z M30.529,27.066l-1.034-1.034l1.057-1.057l1.034,1.034   L30.529,27.066z" data-original="#000000" class="active-path" data-old_color="#000000" fill="#307351"/>
	<path d="M56.705,26H54V15h1c0.553,0,1-0.448,1-1V8.141C56,5.858,54.143,4,51.859,4H40V2.24C40,1.005,38.995,0,37.76,0H22.24   C21.005,0,20,1.005,20,2.24V4H8.141C5.858,4,4,5.858,4,8.141V14c0,0.552,0.448,1,1,1h1v11H3.295C1.478,26,0,27.478,0,29.295v18.212   C0,49.984,2.016,52,4.493,52H6v1c0,3.519,2.613,6.432,6,6.92V60h1h34h1v-0.08c3.386-0.488,6-3.401,6-6.92v-1h1.508   C57.984,52,60,49.984,60,47.507V29.295C60,27.478,58.521,26,56.705,26z M22,2.24C22,2.108,22.108,2,22.24,2h15.52   C37.892,2,38,2.108,38,2.24V4H22V2.24z M6,8.141C6,6.96,6.96,6,8.141,6H20h20h11.859C53.04,6,54,6.96,54,8.141V13h-9h-6H21h-6H6   V8.141z M45,32h-2v-2c0-0.552-0.448-1-1-1s-1,0.448-1,1v2h-2v-6h6V32z M40,34h4v0.667l-2,2.667l-2-2.667V34z M44,24h-4v-9h4V24z    M21,32h-2v-2c0-0.552-0.448-1-1-1s-1,0.448-1,1v2h-2v-6h6V32z M16,34h4v0.667l-2,2.667l-2-2.667V34z M20,24h-4v-9h4V24z M4.493,50   C3.118,50,2,48.882,2,47.507V29.295C2,28.581,2.581,28,3.295,28H6v22H4.493z M14,58v-7h32v7H14z M46,49H14v-5h32V49z M52,53   c0,2.414-1.721,4.434-4,4.899V51v-9H12v9v6.899C9.721,57.434,8,55.414,8,53v-1V26V15h6v9h-1v10h1v1c0,0.216,0.07,0.427,0.2,0.6l3,4   c0.188,0.252,0.485,0.4,0.8,0.4s0.611-0.148,0.8-0.4l3-4c0.13-0.173,0.2-0.384,0.2-0.6v-1h1V24h-1v-9h16v9h-1v10h1v1   c0,0.216,0.07,0.427,0.2,0.6l3,4c0.188,0.252,0.485,0.4,0.8,0.4s0.611-0.148,0.8-0.4l3-4c0.13-0.173,0.2-0.384,0.2-0.6v-1h1V24h-1   v-9h6v11v26V53z M58,47.507C58,48.882,56.882,50,55.508,50H54V28h2.705C57.419,28,58,28.581,58,29.295V47.507z" data-original="#000000" class="active-path" data-old_color="#000000" fill="#307351"/>
</g></g> </svg>
